<svg height="512pt" viewBox="-34 0 512 512.00002" width="512pt" xmlns="http://www.w3.org/2000/svg"><path d="m436.585938 194.039062c0 48.960938-35.21875 88.65625-78.65625 88.65625h-257.445313c-51.300781 0-92.894531-46.878906-92.894531-104.703124 0-57.816407 41.59375-104.691407 92.894531-104.691407 7.152344 0 14.113281.910157 20.792969 2.628907 21.15625-40.867188 60.476562-68.335938 105.492187-68.335938 16.257813 0 31.769531 3.582031 45.945313 10.085938 34.320312 15.722656 60.851562 48.546874 71.28125 89.089843 4.523437-.910156 9.175781-1.386719 13.933594-1.386719 43.4375 0 78.65625 39.683594 78.65625 88.65625zm0 0" fill="#4f5263"/><path d="m272.714844 17.679688c-99.066406 0-106.65625 114.761718-106.65625 114.761718s-95.617188 4.085938-95.617188 74.367188 95.617188 75.886718 95.617188 75.886718h-65.574219c-51.300781 0-92.894531-46.878906-92.894531-104.703124 0-57.816407 41.59375-104.691407 92.894531-104.691407 7.152344 0 14.113281.910157 20.792969 2.628907 21.15625-40.867188 60.476562-68.335938 105.492187-68.335938 16.257813 0 31.769531 3.582031 45.945313 10.085938zm0 0" fill="#33344a"/><path d="m294.9375 143.332031-149.410156 169.085938h37.105468l-54.210937 78.871093h38.914063l-61.535157 113.121094 147.507813-129.410156h-40.722656l65.15625-92.304688h-40.722657z" fill="#ffdf59"/><path d="m357.929688 97.792969c-2.820313 0-5.644532.152343-8.449219.457031-12.003907-39.289062-39.136719-71.683594-73.601563-87.46875-15.582031-7.15625-32.105468-10.78125-49.109375-10.78125-44.296875 0-85.734375 25.628906-109.429687 67.28125-8.996094-1.695312-18.332032-2.019531-27.398438-.964844-4.160156.484375-7.144531 4.253906-6.65625 8.417969.484375 4.160156 4.25 7.140625 8.414063 6.660156 9.1875-1.074219 18.691406-.433593 27.683593 1.878907 3.429688.882812 7.007813-.71875 8.632813-3.859376 20.511719-39.621093 58.351563-64.238281 98.753906-64.238281 14.800781 0 29.195313 3.164063 42.785157 9.398438 32.269531 14.785156 57.351562 46.21875 67.09375 84.082031 1.003906 3.90625 4.890624 6.34375 8.847656 5.550781 4.074218-.820312 8.257812-1.238281 12.433594-1.238281 39.1875 0 71.070312 36.367188 71.070312 81.066406 0 44.703125-31.882812 81.066406-71.070312 81.066406l-109.539063.003907 53.554687-128.863281c1.425782-3.425782.164063-7.378907-2.984374-9.347657-3.144532-1.964843-7.253907-1.371093-9.707032 1.410157l-120.878906 136.796874h-67.890625c-47.039063 0-85.308594-43.566406-85.308594-97.113281 0-20.042969 5.328125-39.285156 15.402344-55.644531 9.761719-15.84375 23.253906-27.910156 39.023437-34.894531 3.832032-1.695313 5.5625-6.179688 3.867188-10.011719s-6.179688-5.5625-10.011719-3.867188c-18.585937 8.234376-34.425781 22.34375-45.800781 40.8125-11.550781 18.753907-17.65625 40.75-17.65625 63.605469 0 61.914063 45.078125 112.289063 100.484375 112.289063h54.480469l-15.121094 17.113281c-1.976562 2.238281-2.457031 5.425781-1.230469 8.144531 1.222657 2.722656 3.933594 4.46875 6.914063 4.46875h22.679687l-46.035156 66.988282c-1.597656 2.324218-1.773437 5.335937-.460937 7.832031 1.308593 2.492187 3.894531 4.054687 6.714843 4.054687h26.144531l-55.4375 101.90625c-1.757812 3.230469-.945312 7.257813 1.929688 9.554688 1.386719 1.109375 3.0625 1.660156 4.738281 1.660156 1.789063 0 3.574219-.632812 5.003907-1.882812l81.550781-71.546876c3.152343-2.761718 3.464843-7.558593.699219-10.707031-2.765626-3.152343-7.558594-3.464843-10.707032-.699219l-49.515625 43.441407 41.171875-75.6875c1.277344-2.351563 1.222656-5.203125-.144531-7.503907-1.367187-2.300781-3.84375-3.710937-6.523437-3.710937h-24.488282l46.039063-66.984375c1.59375-2.324219 1.773437-5.339844.460937-7.832031-1.3125-2.496094-3.898437-4.054688-6.714844-4.054688h-20.273437l108.070313-122.304687-40.417969 97.257812c-.972657 2.339844-.710938 5.015625.695312 7.125s3.777344 3.375 6.3125 3.375h26.078125l-56.714844 80.34375c-1.632812 2.316406-1.839843 5.351563-.535156 7.867188 1.304688 2.515625 3.902344 4.097656 6.738282 4.097656h20.566406l-29.824219 26.160156c-3.148437 2.765625-3.460937 7.558594-.695313 10.710938 2.761719 3.148437 7.554688 3.460937 10.707032.699218l44.972656-39.457031c2.375-2.082031 3.210938-5.417969 2.097656-8.375-1.113281-2.957031-3.941406-4.917969-7.101562-4.917969h-26.078125l54.449219-77.132812h76.25c47.554687 0 86.246093-43.175781 86.246093-96.242188 0-53.070312-38.6875-96.246093-86.246093-96.246093zm0 0"/></svg>