<?xml version="1.0" encoding="iso-8859-1"?>
<!-- Generator: Adobe Illustrator 19.0.0, SVG Export Plug-In . SVG Version: 6.00 Build 0)  -->
<svg xmlns="http://www.w3.org/2000/svg" xmlns:xlink="http://www.w3.org/1999/xlink" version="1.1" id="Capa_1" x="0px" y="0px" viewBox="0 0 512.001 512.001" style="enable-background:new 0 0 512.001 512.001;" xml:space="preserve" width="512" height="512">
<g>
	<path style="fill:#FF5A59;" d="M401.976,504.5H110.04l4.92-35.503l20.111-145.135l2.288-16.541   c3.886-28.056,27.875-48.952,56.199-48.952h124.899c28.324,0,52.313,20.896,56.199,48.952l2.288,16.541l20.111,145.135   L401.976,504.5z"/>
	<path style="fill:#2BB4F3;" d="M425.036,439.983c-4.748,13.793-14.847,23.988-27.98,29.014c-5.954,2.278-12.54,3.494-19.537,3.494   h-30.201v-41.161h30.201c6.959,0,8.069-3.217,8.605-4.767c2.077-6.031,0.613-18.877-9.764-36.806   c-7.007-12.109-20.064-29.923-44.09-51.939V504.5H179.746V337.818c-24.026,22.016-37.083,39.83-44.09,51.939   c-10.376,17.929-11.841,30.775-9.764,36.806c0.536,1.55,1.646,4.767,8.605,4.767h30.201v41.161h-30.201   c-6.997,0-13.583-1.216-19.537-3.494c-13.133-5.025-23.232-15.22-27.98-29.014c-4.757-13.804-6.356-37.294,13.047-70.835   c8.577-14.828,20.293-29.962,35.044-45.287c9.773-10.175,20.896-20.428,33.302-30.727c7.217-5.983,16.302-9.276,25.673-9.276   h123.923c9.371,0,18.455,3.293,25.673,9.276c12.406,10.3,23.529,20.552,33.302,30.727c14.751,15.325,26.467,30.459,35.044,45.287   C431.392,402.689,429.793,426.179,425.036,439.983z"/>
	<path style="fill:#1687C4;" d="M411.989,369.148c-8.577-14.828-20.293-29.961-35.044-45.287   c-9.773-10.175-20.896-20.428-33.302-30.727c-7.217-5.983-16.302-9.276-25.673-9.276h-15.74c8.741,0,17.214,3.293,23.947,9.276   c11.572,10.299,21.947,20.552,31.063,30.727c13.759,15.325,24.688,30.459,32.688,45.287c18.098,33.541,16.607,57.031,12.17,70.835   c-4.429,13.793-13.848,23.988-26.098,29.014c-5.554,2.278-11.696,3.494-18.223,3.494h19.744c6.997,0,13.583-1.216,19.537-3.494   c13.133-5.025,23.232-15.22,27.98-29.014C429.793,426.179,431.392,402.688,411.989,369.148z"/>
	<path style="fill:#1687C4;" d="M329.605,472.49V431.33h2.666v-84.67c-4.815-5.534-10.346-11.439-16.701-17.683V504.5h16.701v-32.01   H329.605z"/>
	<g>
		<path style="fill:#FF5A59;" d="M173.606,283.862l15.796,19.74c3.369,4.21,8.468,6.66,13.86,6.66h52.746h52.746    c5.392,0,10.491-2.451,13.86-6.66l15.796-19.74v-9.094H173.606V283.862z"/>
	</g>
	<path style="fill:#F2A077;" d="M226.147,228.36v58.346c0,16.492,13.369,29.861,29.861,29.861h0   c16.492,0,29.861-13.369,29.861-29.861V228.36H226.147z"/>
	<path style="fill:#F9DC6A;" d="M155.652,73.651v90.236h200.712V65.751c0-19.854-16.095-35.949-35.949-35.949H305.82l-1.105-2.275   C298.767,15.277,286.346,7.5,272.729,7.5h-50.926C185.269,7.5,155.652,37.117,155.652,73.651z"/>
	<path style="fill:#E5AC51;" d="M320.415,29.801H305.82l-1.105-2.275C298.767,15.277,286.346,7.5,272.729,7.5h-16.5   c13.617,0,26.038,7.777,31.986,20.026l1.105,2.275h14.595c19.854,0,35.949,16.095,35.949,35.949v98.137h16.5V65.75   C356.364,45.896,340.269,29.801,320.415,29.801z"/>
	<path style="fill:#FFCCAA;" d="M369.856,160.493v8.603c0,10.043-8.141,18.184-18.184,18.184h-17.91   c-1.064,20.552-10.087,39.01-24.06,52.322c-13.973,13.304-32.877,21.469-53.695,21.469c-41.635,0-75.636-32.671-77.754-73.792   h-17.91c-10.043,0-18.184-8.141-18.184-18.184v-8.603c0-10.043,8.141-18.184,18.184-18.184h17.798V109.8h65.369   c31.098,0,56.939-22.483,62.147-52.086c0.452-2.57,3.517-3.631,5.452-1.88c13.983,12.648,22.765,30.938,22.765,51.282v35.193   h17.798C361.715,142.309,369.856,150.45,369.856,160.493z"/>
	<path style="fill:#F2A077;" d="M351.672,142.309h-17.798v-35.193c0-20.344-8.782-38.634-22.765-51.282   c-1.935-1.75-5-0.689-5.452,1.88c-0.849,4.826-2.255,9.458-4.135,13.84c6.246,10.392,9.851,22.552,9.851,35.562v35.193   l-0.112,44.972c-1.064,20.552-10.087,39.01-24.06,52.322c-11.408,10.861-26.104,18.293-42.444,20.657   c3.674,0.532,7.428,0.812,11.249,0.812c20.817,0,39.722-8.166,53.695-21.469c13.973-13.313,22.996-31.771,24.06-52.322h17.91   c10.043,0,18.184-8.142,18.184-18.184v-8.604C369.856,150.45,361.715,142.309,351.672,142.309z"/>
	<polygon style="fill:#F9DC6A;" points="281.214,356.534 257.283,356.534 254.733,356.534 230.802,356.534 218.039,371.53    245.48,417.093 266.536,417.093 293.977,371.53  "/>
	<g>
		<g>
			<path style="fill:#FFCCAA;" d="M337.091,422.593h-9.378c-7.033,0-12.735,5.702-12.735,12.735v32.971     c0,7.033,5.702,12.735,12.735,12.735h9.378c5.65,0,10.229-4.58,10.229-10.229v-37.982     C347.32,427.173,342.74,422.593,337.091,422.593z"/>
		</g>
		<g>
			<path style="fill:#FFCCAA;" d="M174.925,422.593h9.378c7.033,0,12.735,5.702,12.735,12.735v32.971     c0,7.033-5.702,12.735-12.735,12.735h-9.378c-5.65,0-10.229-4.58-10.229-10.229v-37.982     C164.696,427.173,169.276,422.593,174.925,422.593z"/>
		</g>
	</g>
	<g>
		<path d="M426.936,382.177c-1.625-3.809-6.03-5.578-9.842-3.955c-3.81,1.626-5.581,6.032-3.955,9.842    c9.994,23.424,8.131,39.833,4.807,49.476c-3.944,11.46-12.315,20.146-23.557,24.452c-5.227,1.99-10.903,2.999-16.871,2.999H354.82    v-26.16h22.697c10.149,0,14.134-5.327,15.704-9.835c1.625-4.732,3.866-18.396-10.371-42.989    c-6.74-11.659-20.108-30.442-45.518-53.716c-2.193-2.01-5.365-2.533-8.087-1.334c-2.722,1.197-4.479,3.891-4.479,6.864v77.512    c-9.763,1.434-17.29,9.841-17.29,19.996v32.971c0,10.155,7.527,18.563,17.29,19.996V504.5c0,4.143,3.358,7.5,7.5,7.5    s7.5-3.357,7.5-7.5v-16.19c5.278-0.805,9.788-3.935,12.459-8.32h25.291c4.56,0,9.003-0.472,13.3-1.381l3.731,26.92    c0.521,3.754,3.734,6.472,7.42,6.472c0.343,0,0.69-0.023,1.039-0.072c4.103-0.568,6.968-4.355,6.399-8.458l-4.147-29.922    c12.687-6.463,22.121-17.332,26.869-31.124C436.31,430.293,438.803,409.992,426.936,382.177z M369.867,393.518    c9.402,16.242,10.217,26.601,9.291,30.193c-0.348,0.062-0.878,0.119-1.641,0.119h-25.174c-2.655-4.486-7.221-7.696-12.576-8.513    v-59.841C355.748,371.772,364.843,384.825,369.867,393.518z M322.478,468.299v-32.971c0-2.887,2.348-5.235,5.235-5.235h9.378    c1.505,0,2.729,1.225,2.729,2.729v37.982c0,1.505-1.225,2.729-2.729,2.729h-4.746c-0.008,0,0.041,0-0.155,0h-4.477    C324.826,473.534,322.478,471.186,322.478,468.299z"/>
		<path d="M219.831,192.364c1.958,4.851,4.84,9.2,8.574,12.933c7.385,7.367,17.188,11.425,27.603,11.425    c15.975,0,30.173-9.556,36.172-24.345c1.557-3.839-0.293-8.213-4.131-9.77c-3.837-1.555-8.212,0.293-9.769,4.131    c-3.691,9.103-12.434,14.983-22.271,14.983c-6.415,0-12.456-2.502-17.003-7.038c-2.293-2.293-4.064-4.962-5.263-7.933    c-1.551-3.843-5.921-5.698-9.762-4.148C220.138,184.153,218.281,188.523,219.831,192.364z"/>
		<path d="M217.028,154.849c4.142,0,7.5-3.357,7.5-7.5v-3.761c0-4.143-3.358-7.5-7.5-7.5s-7.5,3.357-7.5,7.5v3.761    C209.528,151.491,212.886,154.849,217.028,154.849z"/>
		<path d="M294.988,154.849c4.142,0,7.5-3.357,7.5-7.5v-3.761c0-4.143-3.358-7.5-7.5-7.5s-7.5,3.357-7.5,7.5v3.761    C287.488,151.491,290.846,154.849,294.988,154.849z"/>
		<path d="M286.925,351.673c-1.425-1.674-3.513-2.639-5.711-2.639h-50.412c-2.199,0-4.287,0.965-5.711,2.639l-12.763,14.996    c-2.089,2.455-2.376,5.97-0.713,8.73l27.44,45.563c1.357,2.253,3.795,3.631,6.425,3.631h21.057c2.63,0,5.068-1.378,6.425-3.631    l27.44-45.563c1.663-2.761,1.375-6.275-0.713-8.73L286.925,351.673z M262.298,409.594h-12.58l-22.471-37.312l7.02-8.248h43.481    l7.02,8.248L262.298,409.594z"/>
		<path d="M187.248,415.332V337.82c0-2.974-1.757-5.667-4.479-6.864c-2.722-1.198-5.895-0.675-8.087,1.334    c-25.41,23.273-38.778,42.057-45.515,53.712c-14.239,24.598-11.998,38.261-10.359,43.031c1.556,4.47,5.542,9.797,15.69,9.797    h22.697v26.16h-22.697c-5.968,0-11.645-1.009-16.857-2.994c-11.256-4.312-19.627-12.997-23.571-24.456    c-4.244-12.33-5.528-33.552,12.45-64.634c8.236-14.235,19.651-28.978,33.929-43.821c0.004-0.004,0.008-0.009,0.012-0.013    c0.004-0.004,0.008-0.009,0.013-0.013c9.557-9.938,20.556-20.084,32.679-30.145c0.584-0.482,1.184-0.938,1.793-1.375l8.597,10.748    c4.819,6.021,12.005,9.474,19.715,9.474h31.991c6.138,4.134,13.259,6.311,20.759,6.311c7.512,0,14.643-2.184,20.762-6.311h31.988    c7.71,0,14.896-3.453,19.717-9.476l8.596-10.746c0.604,0.435,1.199,0.886,1.777,1.363c12.138,10.073,23.138,20.22,32.694,30.158    c0.007,0.007,0.013,0.014,0.019,0.021c0,0,0.001,0,0.001,0.001c10.748,11.177,19.897,22.311,27.195,33.093    c1.45,2.142,3.812,3.297,6.218,3.297c1.446,0,2.909-0.418,4.197-1.29c3.431-2.321,4.329-6.984,2.007-10.415    c-7.385-10.911-16.518-22.108-27.131-33.309l-1.962-14.167c-4.38-31.595-31.734-55.42-63.628-55.42h-10.42    c2.366-1.824,4.652-3.761,6.831-5.839c14.146-13.468,23.125-31.103,25.716-50.252h11.083c14.166,0,25.69-11.52,25.69-25.68v-8.609    c0-9.75-5.463-18.246-13.49-22.594V65.75c0-23.959-19.491-43.45-43.45-43.45h-9.966C302.939,8.684,288.367,0,272.728,0h-50.92    c-17.077,0-33.718,5.977-46.856,16.828c-3.193,2.638-3.644,7.365-1.006,10.559c2.637,3.193,7.364,3.645,10.559,1.006    C194.961,19.757,208.209,15,221.808,15h50.92c19.853,0,26.029,17.712,26.341,18.071c1.254,2.586,3.875,4.229,6.749,4.229h14.6    c15.687,0,28.45,12.763,28.45,28.45v69.061h-7.49v-27.69c0-21.616-9.199-42.338-25.232-56.847    c-2.915-2.643-7.033-3.493-10.745-2.22c-3.718,1.275-6.45,4.479-7.129,8.356c-4.678,26.591-27.709,45.89-54.763,45.89h-65.37    c-4.142,0-7.5,3.357-7.5,7.5v25.011h-7.49V73.65c0-8.316,1.702-16.345,5.059-23.862c1.688-3.782-0.009-8.218-3.791-9.906    c-3.782-1.688-8.217,0.01-9.906,3.791c-4.221,9.454-6.361,19.54-6.361,29.978v64.246c-8.027,4.348-13.49,12.845-13.49,22.594    v8.609c0,14.16,11.524,25.68,25.69,25.68h11.089c3.06,22.311,14.961,42.491,32.561,56.091h-10.44    c-31.894,0-59.249,23.825-63.629,55.422l-1.959,14.15c-14.338,15.127-25.922,30.241-34.434,44.953    c-20.81,35.978-18.909,61.745-13.649,77.026c4.747,13.791,14.178,24.658,26.87,31.125l-4.147,29.923    c-0.568,4.103,2.296,7.89,6.399,8.458c0.35,0.049,0.696,0.072,1.039,0.072c3.685,0,6.899-2.718,7.42-6.472l3.731-26.919    c4.295,0.909,8.74,1.38,13.3,1.38h25.291c2.671,4.385,7.181,7.515,12.459,8.32v16.19c0,4.143,3.358,7.5,7.5,7.5s7.5-3.357,7.5-7.5    v-16.205c9.763-1.434,17.29-9.841,17.29-19.996v-32.971C204.538,425.173,197.011,416.766,187.248,415.332z M233.648,286.71v-20.84    c1.955,0.011,10.006,2.7,22.36,2.7c7.234,0,14.315-0.894,21.297-2.686c0.019-0.005,0.037-0.009,0.056-0.014h1.006v20.84    c0,12.372-10.03,22.36-22.36,22.36C243.883,309.07,233.648,299.277,233.648,286.71z M366.119,302.811    c-5.596-5.154-11.507-10.321-17.706-15.465c-0.862-0.711-1.749-1.382-2.651-2.028c0.524-2.656-0.408-5.505-2.668-7.313    c-3.235-2.588-7.954-2.063-10.542,1.172l-15.789,19.737c-1.957,2.444-4.874,3.847-8.004,3.847h-18.994    c2.358-4.949,3.604-10.402,3.604-16.05v-20.84h25.09C341.001,265.87,360.573,281.404,366.119,302.811z M185.748,186.896    c-0.204-3.987-3.497-7.116-7.49-7.116h-17.91c-5.895,0-10.69-4.791-10.69-10.68v-8.609c0-5.889,4.795-10.68,10.69-10.68h17.79    c4.142,0,7.5-3.357,7.5-7.5V117.3h57.87c31.689,0,59.034-20.866,67.746-50.622c9.684,11.156,15.124,25.535,15.124,40.442v35.19    c0,4.143,3.358,7.5,7.5,7.5h17.79c5.895,0,10.69,4.791,10.69,10.68v8.609c0,5.889-4.795,10.68-10.69,10.68h-17.91    c-3.992,0-7.284,3.127-7.49,7.113c-0.93,18.023-8.651,34.813-21.746,47.279c-6.28,5.988-13.525,10.713-21.533,14.043    c-8.55,3.554-17.628,5.355-26.981,5.355c-9.527,0-18.763-1.944-26.981-5.355C204.112,237.857,187.125,213.788,185.748,186.896z     M193.558,265.87h25.09v20.84c0,5.665,1.26,11.119,3.604,16.05h-18.994c-3.13,0-6.048-1.402-8.003-3.845l-15.79-19.739    c-2.588-3.236-7.308-3.761-10.542-1.172c-2.261,1.808-3.193,4.658-2.668,7.314c-0.906,0.649-1.799,1.324-2.667,2.04    c-6.19,5.138-12.098,10.3-17.69,15.452C151.444,281.403,171.016,265.87,193.558,265.87z M132.86,423.712    c-0.925-3.633-0.095-13.983,9.292-30.198c5.022-8.689,14.117-21.741,30.097-38.038v59.841c-5.355,0.817-9.921,4.027-12.576,8.513    h-25.174C133.737,423.83,133.207,423.772,132.86,423.712z M189.538,468.299c0,2.887-2.348,5.235-5.235,5.235h-4.477    c-0.008,0,0.041,0-0.155,0h-4.746c-1.505,0-2.73-1.225-2.73-2.729v-37.982c0-1.505,1.225-2.729,2.73-2.729h9.378    c2.887,0,5.235,2.349,5.235,5.235V468.299z"/>
	</g>
</g>















</svg>
