<?xml version="1.0" encoding="iso-8859-1"?>
<!-- Generator: Adobe Illustrator 19.1.0, SVG Export Plug-In . SVG Version: 6.00 Build 0)  -->
<svg version="1.1" id="Capa_1" xmlns="http://www.w3.org/2000/svg" xmlns:xlink="http://www.w3.org/1999/xlink" x="0px" y="0px"
	 viewBox="0 0 512.002 512.002" style="enable-background:new 0 0 512.002 512.002;" xml:space="preserve">
<g>
	<g>
		<g>
			<path style="fill:#FF4F19;" d="M317.024,306.849c0.352-3.383,2.797-6.18,6.109-6.965c3.305-0.781,6.758,0.602,8.594,3.469
				l49.016,76.629c7.367,11.57,11.258,24.937,11.258,38.656v85.363c0,3.383-2.125,6.398-5.312,7.535
				c-0.875,0.312-1.789,0.465-2.688,0.465c-2.352,0-4.641-1.039-6.195-2.934l-70.32-85.949c-1.344-1.648-1.977-3.766-1.766-5.883
				L317.024,306.849z"/>
		</g>
		<g>
			<path style="fill:#E9001E;" d="M194.977,306.849c-0.352-3.383-2.797-6.18-6.109-6.965c-3.305-0.781-6.758,0.602-8.594,3.469
				l-49.016,76.629c-7.367,11.57-11.258,24.937-11.258,38.656v85.363c0,3.383,2.125,6.398,5.312,7.535
				c0.875,0.312,1.789,0.465,2.688,0.465c2.352,0,4.641-1.039,6.195-2.934l70.32-85.949c1.344-1.648,1.977-3.766,1.766-5.883
				L194.977,306.849z"/>
		</g>
		<g>
			<path style="fill:#FFD200;" d="M260.118,1.143c-2.531-1.523-5.703-1.523-8.234,0c-3.422,2.055-83.883,51.562-83.883,158.859
				c0,43.324,10.766,158.594,25.047,268.125c2.07,15.891,15.703,27.875,31.695,27.875h62.516c15.992,0,29.625-11.984,31.695-27.875
				c14.281-109.531,25.047-224.801,25.047-268.125C344.001,52.705,263.54,3.197,260.118,1.143z"/>
		</g>
		<g>
			<path style="fill:#FF9600;" d="M256.001,456.002h-31.258c-15.992,0-29.625-11.984-31.695-27.875
				c-14.281-109.531-25.047-224.801-25.047-268.125c0-107.297,80.461-156.805,83.883-158.859c1.261-0.759,2.682-1.138,4.103-1.141
				h0.015V456.002z"/>
		</g>
		<g>
			<circle style="fill:#53DCFF;" cx="256.001" cy="168.002" r="48"/>
		</g>
		<g>
			<g>
				<path style="fill:#FF4F19;" d="M256.001,512.002c-4.422,0-8-3.582-8-8v-192c0-4.418,3.578-8,8-8s8,3.582,8,8v192
					C264.001,508.42,260.423,512.002,256.001,512.002z"/>
			</g>
		</g>
		<g>
			<path style="fill:#FF4F19;" d="M251.884,1.143c-2.288,1.374-38.98,23.989-63.071,70.859h134.376
				c-24.091-46.87-60.783-69.486-63.071-70.859C257.587-0.381,254.415-0.381,251.884,1.143z"/>
		</g>
		<g>
			<path style="fill:#E9001E;" d="M256.001,0c-1.426,0-2.852,0.381-4.117,1.143c-2.288,1.374-38.98,23.989-63.071,70.859h67.188V0z"
				/>
		</g>
		<g>
			<path style="fill:#B3F4FF;" d="M304.001,168.002c0-26.51-21.49-48-48-48v96C282.511,216.002,304.001,194.512,304.001,168.002z"/>
		</g>
	</g>
	<g>
		<g>
			<path style="fill:#5C546A;" d="M256.001,224.002c-30.875,0-56-25.121-56-56s25.125-56,56-56s56,25.121,56,56
				S286.876,224.002,256.001,224.002z M256.001,128.002c-22.055,0-40,17.945-40,40s17.945,40,40,40s40-17.945,40-40
				S278.056,128.002,256.001,128.002z"/>
		</g>
	</g>
</g>
<g>
</g>
<g>
</g>
<g>
</g>
<g>
</g>
<g>
</g>
<g>
</g>
<g>
</g>
<g>
</g>
<g>
</g>
<g>
</g>
<g>
</g>
<g>
</g>
<g>
</g>
<g>
</g>
<g>
</g>
</svg>
