<svg xmlns="http://www.w3.org/2000/svg" width="256" height="256" viewBox="0 0 256 256">
  <defs>
    <linearGradient id="wpackio-symbol-a" x1="91.177%" x2="19.158%" y1="-6.885%" y2="83.732%">
      <stop offset="0%" stop-color="#4E60D3"/>
      <stop offset="14.276%" stop-color="#913BAF"/>
      <stop offset="58.915%" stop-color="#D52D88"/>
      <stop offset="100%" stop-color="#F26D4F"/>
    </linearGradient>
  </defs>
  <path fill="url(#wpackio-symbol-a)" d="M237.595,52.1285515 L221.744385,46.8239311 L237.595,41.5239926 C241.484923,40.2224175 244,36.7250199 244,32.6189722 C244,28.4988786 241.475538,24.9967991 237.571538,23.6905422 L168.974692,0.73974829 C166.088923,-0.22941008 162.902846,-0.22941008 160.017077,0.73974829 L122,13.4558552 L83.9876154,0.735066366 C81.0502308,-0.243455853 77.958,-0.243455853 75.0675385,0.725702517 L40.0723077,12.4351957 C23.1424615,18.1003243 6.85076923,23.5454025 6.41907692,23.6858602 C2.51976923,25.001481 0,28.5082425 0,32.628336 C0.00469230769,36.7297019 2.51976923,40.2224175 6.41438462,41.5239926 L22.2556154,46.8239311 L6.43315385,52.1191877 C2.52915385,53.4207627 0.00938461538,56.9228422 0.00938461538,61.0429358 C0.00938461538,65.1583474 2.52915385,68.6604269 6.43315385,69.9620019 L32.8461538,78.8014754 L32.8461538,170.155186 C32.8461538,175.984182 36.7548462,181.120253 42.5686154,182.932158 L111.658154,204.445601 C114.994385,205.480306 118.494846,206 122,206 C125.505154,206 129.005615,205.480306 132.341846,204.445601 L201.436077,182.927476 C207.245154,181.120253 211.153846,175.984182 211.153846,170.155186 L211.153846,78.8014754 L237.566846,69.9666838 C241.475538,68.655745 244,65.1536655 244,61.0335719 C244,56.9322061 241.484923,53.4301265 237.595,52.1285515 Z M163.001385,9.61667713 C163.963308,9.29830626 165.019077,9.29830626 165.981,9.61667713 L234.610692,32.6470637 L206.719615,41.9781392 L136.288077,18.554471 L163.001385,9.61667713 Z M52.3755385,46.8239311 L122,23.6671325 L191.624462,46.8239311 L122,69.9854115 L52.3755385,46.8239311 Z M9.394,32.5721529 C9.76,32.4504229 26.0892308,26.9912989 43.0566154,21.3121245 L78.0565385,9.60731328 C78.5257692,9.44812785 79.0137692,9.36853513 79.5064615,9.36853513 C80.0038462,9.36853513 80.5106154,9.45280977 80.9986154,9.61667713 L107.711923,18.554471 L37.3226154,41.9640935 L9.394,32.5721529 Z M37.2803846,51.6744049 L107.711923,75.0980731 L80.9892308,84.031185 C80.0366923,84.3589197 78.9809231,84.3495559 78.0096154,84.031185 L9.41276923,60.9961165 L37.2803846,51.6744049 Z M45.3699231,173.994364 C43.493,173.409124 42.2307692,171.864089 42.2307692,170.155186 L42.2307692,144.446739 L117.307692,167.336668 L117.307692,196.153913 C116.345769,195.976 115.383846,195.788723 114.454769,195.498443 L45.3699231,173.994364 Z M198.634769,173.989682 L129.545231,195.503125 C128.611462,195.793405 127.649538,195.976 126.692308,196.158595 L126.692308,167.341349 L201.769231,144.451421 L201.769231,170.159868 C201.769231,171.864089 200.507,173.409124 198.634769,173.989682 Z M201.769231,134.661516 L126.692308,157.546763 L126.692308,103.002343 L117.307692,103.002343 L117.307692,157.546763 L42.2307692,134.661516 L42.2307692,81.9430467 L75.03,92.9174777 C76.4799231,93.3997159 77.9955385,93.6384941 79.5111538,93.6384941 C81.0267692,93.6384941 82.5423846,93.395034 83.9782308,92.9127958 L122,80.1966889 L160.017077,92.9127958 C162.912231,93.8819542 166.088923,93.8819542 168.965308,92.9127958 L201.769231,81.9383648 L201.769231,134.661516 Z M165.976308,84.035867 C165.023769,84.3636017 163.968,84.3542378 162.996692,84.035867 L136.283385,75.102755 L206.672692,51.6931326 L234.587231,61.089755 L165.976308,84.035867 Z M80,47 L122,33 L164,47 L122,61 L80,47 Z" transform="translate(6 25)"/>
</svg>
