<svg xmlns="http://www.w3.org/2000/svg" xmlns:xlink="http://www.w3.org/1999/xlink" width="600" height="130" viewBox="0 0 600 130">
  <defs>
    <linearGradient id="wpackio-text-b" x1="14.311%" x2="98.343%" y1="0%" y2="111.451%">
      <stop offset="0%" stop-color="#4E60D3"/>
      <stop offset="14.276%" stop-color="#913BAF"/>
      <stop offset="76.146%" stop-color="#D52D88"/>
      <stop offset="100%" stop-color="#F26D4F"/>
    </linearGradient>
    <path id="wpackio-text-a" d="M63.1549447,34.5633957 L72.6466023,34.5633957 C72.6466023,57.6783737 66.7282747,78.7833536 60.809947,100 L51.7649556,100 C47.2982932,88.1633446 43.7249633,78.5600204 41.4916321,66.7233651 C39.0349677,78.5600204 35.1266381,88.1633446 30.4366426,100 L21.3916512,100 C16.1433229,78.7833536 11.6766605,57.6783737 11.3416608,34.5633957 L20.8333184,34.5633957 C20.8333184,52.8767116 23.1783162,68.3983635 27.3099789,84.4783481 C31.6649748,72.8650259 35.0149716,63.5967014 37.1366362,51.9833791 L46.7399604,51.9833791 C48.6382919,63.5967014 51.5416225,72.8650259 55.6732852,84.4783481 C60.1399476,68.3983635 63.1549447,52.8767116 63.1549447,34.5633957 Z M116.419964,34.5633957 C134.286614,34.5633957 144.671604,46.2883846 144.671604,66.3883654 C144.671604,87.6050118 132.946615,101.563332 115.303299,101.563332 C108.268305,101.563332 102.014978,99.3300006 97.3249824,95.1983379 L97.3249824,122.333312 L87.8333248,123.003311 L87.8333248,36.3500607 L99.7816468,36.3500607 C98.7766477,37.801726 97.3249824,41.2633893 97.3249824,44.1667199 L97.3249824,44.390053 C102.126645,37.5783929 107.933306,34.5633957 116.419964,34.5633957 Z M115.303299,92.5183405 C126.916621,92.5183405 135.179946,81.6866841 135.179946,66.3883654 C135.179946,52.2067122 127.809953,42.9383878 116.419964,42.9383878 C108.379972,42.9383878 101.456645,47.5167167 97.3249824,55.5567091 L97.3249824,82.6916832 C100.228313,89.5033433 105.811641,92.5183405 115.303299,92.5183405 Z M187.216634,34.5633957 C204.078284,34.5633957 216.138273,46.6233842 216.138273,63.5967014 L216.138273,100 L204.189951,100 C205.19495,98.5483347 206.646615,95.0866714 206.646615,92.1833408 C203.408285,97.7666688 195.703292,101.451665 186.769967,101.563332 C172.699981,101.563332 161.533325,95.3100045 161.533325,83.4733491 C161.533325,70.7433612 174.374979,64.1550342 199.946622,64.1550342 C202.068286,64.1550342 204.301617,64.2667007 206.646615,64.3783673 L206.646615,63.5967014 C206.646615,51.5367129 198.829956,43.1617209 187.551633,43.1617209 C181.856639,43.1617209 175.826645,45.2833855 168.679985,52.2067122 L162.98499,45.2833855 C169.238317,38.4717253 177.948309,34.5633957 187.216634,34.5633957 Z M185.094969,93.5233395 C192.688295,93.5233395 201.509953,90.0616761 206.646615,82.9150163 L206.646615,72.6416928 C204.189951,72.5300262 201.733286,72.5300262 199.499955,72.5300262 C180.18164,72.5300262 171.248316,75.6566899 171.248316,83.4733491 C171.248316,90.0616761 177.501643,93.5233395 185.094969,93.5233395 Z M280.011615,80.0116857 L290.954938,81.5750176 C288.498274,93.8583392 277.666618,101.563332 263.038298,101.563332 C244.724982,101.563332 234.339992,90.0616761 234.339992,70.1850284 C234.339992,49.973381 243.719983,34.5633957 263.038298,34.5633957 C275.32162,34.5633957 286.488276,41.598389 289.838273,52.0950457 L279.341616,55.1100428 C277.108285,47.7400498 270.408291,43.4967206 263.038298,43.4967206 C250.531644,43.4967206 244.948316,53.6583775 244.948316,70.1850284 C244.948316,85.0366809 251.201643,92.7416736 263.038298,92.7416736 C272.306623,92.7416736 278.448284,88.3866777 280.011615,80.0116857 Z M369.568267,100 L354.269948,100 L325.236643,71.8600268 L322.221645,74.5400243 L322.221645,100 L312.729988,100 L312.729988,12.2300837 L322.221645,12.9000831 L322.221645,61.8100364 L351.701617,36.3500607 L365.436604,37.3550597 L333.276635,65.0483667 L369.568267,100 Z M403.514972,94.6400051 C403.514972,90.1733427 406.083302,87.7166784 410.549965,87.7166784 C415.016627,87.7166784 417.473292,90.1733427 417.473292,94.6400051 C417.473292,99.2183341 415.016627,101.674998 410.549965,101.674998 C405.971636,101.674998 403.514972,99.2183341 403.514972,94.6400051 Z M481.458301,18.0367448 C482.1283,13.5700824 485.031631,11.1134181 489.498293,11.1134181 C493.964956,11.1134181 496.08662,13.5700824 495.416621,18.0367448 C494.746622,22.6150738 491.954958,25.0717381 487.488295,25.0717381 C482.909966,25.0717381 480.788301,22.6150738 481.458301,18.0367448 Z M501.781615,82.2450169 L504.238279,85.5950137 C500.218283,94.0816723 494.299955,101.674998 484.696631,101.674998 C471.74331,101.674998 466.383315,92.4066739 469.174979,78.2250208 C470.849978,69.6266956 474.758307,55.1100428 477.661638,43.9433868 L465.154983,44.390053 L466.941648,37.5783929 L488.93996,36.3500607 C486.259963,47.6283833 480.453302,67.505031 478.666637,78.2250208 C477.103305,87.7166784 479.448303,92.7416736 486.37163,92.7416736 C491.843291,92.7416736 497.873285,88.833344 501.781615,82.2450169 Z M553.594969,101.674998 C535.616653,101.674998 525.901662,88.0516781 528.804993,66.9466982 C531.596657,46.9583839 544.438311,34.5633957 562.193294,34.5633957 C580.283277,34.5633957 590.109934,47.7400498 587.31827,68.0633638 C584.526606,88.2750112 571.126619,101.674998 553.594969,101.674998 Z M553.818302,93.5233395 C565.766624,93.5233395 574.364949,83.6966822 576.709947,66.9466982 C578.943278,50.9783801 573.35995,42.2683884 561.746628,42.380055 C550.244972,42.4917215 542.093313,51.760046 539.748316,68.0633638 C537.514984,83.9200153 542.763313,93.5233395 553.818302,93.5233395 Z"/>
  </defs>
  <g fill="none" fill-rule="evenodd">
    <use fill="#000" xlink:href="#wpackio-text-a"/>
    <use fill="url(#wpackio-text-b)" xlink:href="#wpackio-text-a"/>
  </g>
</svg>
