<svg xmlns="http://www.w3.org/2000/svg" xmlns:xlink="http://www.w3.org/1999/xlink" width="512" height="512" viewBox="0 0 512 512">
  <defs>
    <path id="wpeform-a" d="M33.6842105,130.051234 C33.6842105,125.403486 29.9109053,121.630181 25.2631579,121.630181 L8.42105263,121.630181 C3.77344,121.630181 3.73969861e-15,125.403486 3.73969861e-15,130.051234 L3.73969861e-15,153.630181 C3.73969861e-15,158.277794 3.77344,162.051234 8.42105263,162.051234 L25.2631579,162.051234 C29.9109053,162.051234 33.6842105,158.277794 33.6842105,153.630181 L33.6842105,130.051234 Z M67.3684211,74.2561684 C67.3684211,68.6794105 62.8404547,64.1509053 57.2631579,64.1509053 L10.1052632,64.1509053 C4.52810105,64.1509053 3.73969861e-15,68.6794105 3.73969861e-15,74.2561684 L3.73969861e-15,94.4673684 C3.73969861e-15,100.044665 4.52810105,104.572632 10.1052632,104.572632 L57.2631579,104.572632 C62.8404547,104.572632 67.3684211,100.044665 67.3684211,94.4673684 L67.3684211,74.2561684 Z M134.737112,10.1052632 C134.737112,4.52715789 130.208606,3.73969861e-15 124.631848,3.73969861e-15 L10.1052632,3.73969861e-15 C4.52810105,3.73969861e-15 3.73969861e-15,4.52715789 3.73969861e-15,10.1052632 L3.73969861e-15,30.3157895 C3.73969861e-15,35.8925474 4.52810105,40.4210526 10.1052632,40.4210526 L124.631848,40.4210526 C130.208606,40.4210526 134.737112,35.8925474 134.737112,30.3157895 L134.737112,10.1052632 Z"/>
  </defs>
  <g fill="none" fill-rule="evenodd">
    <rect width="512" height="512" fill="#E4E7EB"/>
    <g transform="translate(47 63)">
      <g transform="translate(80)">
        <path fill="#1F2933" fill-rule="nonzero" d="M237.136842,119.076379 L222.970611,133.043604 C222.848,133.165002 222.72,133.280337 222.586611,133.388396 C220.809432,135.035688 218.431326,136.039747 215.820126,136.039747 C210.313432,136.039747 205.841516,131.568505 205.841516,126.059385 L205.856337,125.523267 L129.426998,201.708059 C128.799933,202.333103 128.037726,202.805625 127.198989,203.088977 C127.198989,203.088977 113.206164,207.817027 104.012126,210.923655 C100.452109,212.126585 96.5181979,211.225331 93.8369347,208.592573 C91.1556716,205.959815 90.1828716,202.043015 91.3205895,198.461709 C94.2810274,189.142771 98.8067032,174.897044 98.8067032,174.897044 C99.08736,174.01344 99.5767242,173.210408 100.233432,172.555722 L176.580716,96.4527158 C176.580716,96.4527158 225.614147,47.5769263 225.607411,47.5850105 C228.566232,44.2624 232.586779,41.8977684 237.136842,41.0206316 L237.136842,32.3368421 C237.136842,14.4896 222.647242,0 204.8,0 L32.3368421,0 C14.4896,0 0,14.4896 0,32.3368421 L0,223.663158 C0,241.5104 14.4896,256 32.3368421,256 L204.8,256 C222.647242,256 237.136842,241.5104 237.136842,223.663158 L237.136842,119.076379 Z"/>
        <path fill="#1F2933" fill-rule="nonzero" d="M175.450274,106.338358 L104.310029,177.250762 C104.310029,177.250762 99.7843537,191.496354 96.8239158,200.815293 C96.3451958,202.322055 96.7545263,203.970021 97.8826779,205.077693 C99.0106947,206.185364 100.665802,206.564514 102.163672,206.058442 C111.357709,202.951815 125.350535,198.223764 125.350535,198.223764 L196.490779,127.311225 L175.450274,106.338358 Z M213.160421,129.920808 C212.218611,129.149171 211.616337,127.976691 211.616337,126.664623 C211.616337,125.340295 212.229389,124.158248 213.186021,123.387149 L231.083116,105.741474 C236.636968,100.265768 239.051453,92.8134737 238.315789,85.6212211 L201.698358,122.120758 L180.657853,101.148295 L229.820632,52.1418105 C232.557137,49.0078316 236.587116,47.0258526 241.079242,47.0258526 C249.314358,47.0258526 256,53.6899368 256,61.8994526 C256,66.4171789 253.974905,70.4673684 250.778947,73.1971368 L245.433937,78.5246316 C248.885895,89.9045053 246.064505,102.769179 237.000758,111.706274 L218.916379,129.537078 L218.902905,129.522931 C218.134905,130.351697 217.0368,130.870568 215.820126,130.870568 C214.839242,130.870568 213.937853,130.534131 213.2224,129.970661 L213.160421,129.920808 Z"/>
        <g transform="translate(46.453 46.975)">
          <mask id="wpeform-b" fill="#fff">
            <use xlink:href="#wpeform-a"/>
          </mask>
          <g fill-rule="nonzero" mask="url(#wpeform-b)">
            <g transform="translate(-24.895 -44.28)">
              <ellipse cx="123.284" cy="71.411" fill="#F35627" rx="58.611" ry="71.411"/>
              <ellipse cx="42.442" cy="92.968" fill="#F0B429" rx="42.442" ry="61.979"/>
              <ellipse cx="74.779" cy="173.811" fill="#F35627" rx="66.695" ry="66.021"/>
            </g>
          </g>
        </g>
      </g>
      <g fill-rule="nonzero" transform="translate(0 296)">
        <path fill="#0967D2" d="M57.492082,71.9696787 C61.5590592,71.9696787 64.3926089,69.9329202 65.992731,65.8594032 L65.992731,65.8594032 L79.9938001,30.9006136 C81.0605482,28.3630129 81.1605558,26.092528 80.293823,24.0891589 C79.4270901,22.0857899 77.5602809,21.0841054 74.6933954,21.0841054 C73.1599449,21.0841054 71.776506,21.4847792 70.5430785,22.2861268 C69.309651,23.0874744 68.2929067,24.5566117 67.4928456,26.6935387 L67.4928456,26.6935387 L57.492082,53.839189 L47.2913031,25.7920226 C46.0912115,22.6534111 43.9243794,21.0841054 40.7908068,21.0841054 C37.6572342,21.0841054 35.523738,22.6534111 34.3903181,25.7920226 L34.3903181,25.7920226 L24.0895316,53.4385152 L14.2887833,27.0942125 C13.4220505,24.7569486 12.438642,23.1709481 11.338558,22.336211 C10.238474,21.501474 8.8216992,21.0841054 7.08823351,21.0841054 C4.02133268,21.0841054 1.93784027,22.0357057 0.837756273,23.9389063 C-0.262327722,25.8421068 -0.278995661,28.162676 0.787752455,30.9006136 L0.787752455,30.9006136 L14.8888291,65.8594032 C16.4889513,69.9329202 19.322501,71.9696787 23.3894782,71.9696787 C27.4564554,71.9696787 30.2566692,69.8995307 31.7901196,65.7592347 L31.7901196,65.7592347 L40.2907686,43.1211647 L48.9914329,65.8594032 C50.5915551,69.9329202 53.4251048,71.9696787 57.492082,71.9696787 Z M96.4951408,90 C101.495523,90 103.995713,87.4290097 103.995713,82.2870292 L103.995713,82.2870292 L103.995713,64.4570449 C105.462492,66.7943087 107.545985,68.6641198 110.246191,70.0664782 C112.946397,71.4688365 115.929958,72.1700156 119.196874,72.1700156 C123.463867,72.1700156 127.214153,71.1182469 130.447733,69.0147094 C133.681313,66.9111719 136.198172,63.9395079 137.99831,60.0997172 C139.798447,56.2599266 140.698516,51.7022621 140.698516,46.4267236 C140.698516,41.1511852 139.798447,36.6102154 137.99831,32.8038142 C136.198172,28.9974131 133.681313,26.0591385 130.447733,23.9889905 C127.214153,21.9188425 123.463867,20.8837685 119.196874,20.8837685 C115.796614,20.8837685 112.729714,21.6183371 109.996172,23.0874744 C107.26263,24.5566117 105.195805,26.5265913 103.795698,28.9974131 L103.795698,28.9974131 L103.795698,28.6969077 C103.795698,23.6217062 101.295507,21.0841054 96.2951255,21.0841054 C91.3614155,21.0841054 88.8945604,23.6217062 88.8945604,28.6969077 L88.8945604,28.6969077 L88.8945604,82.2870292 C88.8945604,87.4290097 91.4280872,90 96.4951408,90 Z M114.69653,60.8509806 C111.429614,60.8509806 108.79608,59.6823487 106.795927,57.3450848 C104.795775,55.007821 103.795698,51.3683672 103.795698,46.4267236 C103.795698,41.551859 104.795775,37.9624895 106.795927,35.6586151 C108.79608,33.3547407 111.429614,32.2028035 114.69653,32.2028035 C117.896775,32.2028035 120.496973,33.3547407 122.497126,35.6586151 C124.497279,37.9624895 125.497355,41.551859 125.497355,46.4267236 C125.497355,51.3683672 124.497279,55.007821 122.497126,57.3450848 C120.496973,59.6823487 117.896775,60.8509806 114.69653,60.8509806 Z"/>
        <path fill="#1F2933" d="M175.001216,72.1700156 C177.601414,72.1700156 180.318288,71.8528155 183.151838,71.2184154 C185.985388,70.5840152 188.568918,69.6324149 190.90243,68.3636145 C192.635896,67.4287089 193.752647,66.2433823 194.252686,64.8076345 C194.752724,63.3718867 194.752724,61.9862231 194.252686,60.6506437 C193.752647,59.3150644 192.835911,58.3634641 191.502476,57.7958429 C190.16904,57.2282216 188.535582,57.4118638 186.602101,58.3467693 C184.735292,59.2816749 182.785143,59.9327698 180.751655,60.3000541 C178.718166,60.6673385 176.901361,60.8509806 175.301239,60.8509806 C171.234261,60.8509806 168.050685,59.9661593 165.750509,58.1965167 C163.450334,56.426874 162.033559,53.6054626 161.500185,49.7322825 L161.500185,49.7322825 L190.90243,49.7322825 C194.036002,49.7322825 195.602789,48.4634821 195.602789,45.9258814 C195.602789,38.2463001 193.502628,32.1527193 189.302308,27.645139 C185.101987,23.1375587 179.434888,20.8837685 172.30101,20.8837685 C167.3673,20.8837685 163.016967,21.9689267 159.250013,24.1392432 C155.483059,26.3095596 152.516166,29.3146132 150.349333,33.1544038 C148.182501,36.9941944 147.099085,41.4516905 147.099085,46.5268921 C147.099085,51.7356515 148.215837,56.2599266 150.449341,60.0997172 C152.682845,63.9395079 155.883089,66.9111719 160.050074,69.0147094 C164.217059,71.1182469 169.200773,72.1700156 175.001216,72.1700156 Z M183.101834,41.9191433 L161.500185,41.9191433 C161.966887,38.446637 163.183647,35.7420888 165.150464,33.8054987 C167.11728,31.8689087 169.700811,30.9006136 172.901055,30.9006136 C179.301544,30.9006136 182.701804,34.5734569 183.101834,41.9191433 L183.101834,41.9191433 Z M215.104358,71.9696787 C220.10474,71.9696787 222.604931,69.3986885 222.604931,64.256708 L222.604931,64.256708 L222.604931,33.204488 L229.705473,33.204488 C233.639107,33.204488 235.605924,31.3346769 235.605924,27.5950547 C235.605924,23.7886536 233.639107,21.885453 229.705473,21.885453 L229.705473,21.885453 L222.604931,21.885453 L222.604931,20.1825893 C222.604931,17.2443148 223.371656,15.0573036 224.905107,13.6215558 C226.438557,12.185808 229.00542,11.3343761 232.605695,11.0672603 L232.605695,11.0672603 L234.005802,10.9670918 C235.47258,10.8335339 236.589332,10.1824389 237.356057,9.013807 C238.122783,7.84517507 238.456141,6.52629046 238.356134,5.05715317 C238.256126,3.58801588 237.689416,2.33591024 236.656004,1.30083624 C235.622592,0.265762243 234.005802,-0.151606305 231.805634,0.048730598 L231.805634,0.048730598 L228.605389,0.349235952 C221.80487,1.01702563 216.621141,3.07047888 213.054202,6.50959572 C209.487263,9.94871255 207.637122,15.0739983 207.503778,21.885453 L207.503778,21.885453 L203.903503,21.885453 C199.96987,21.885453 198.003053,23.7886536 198.003053,27.5950547 C198.003053,31.3346769 199.96987,33.204488 203.903503,33.204488 L203.903503,33.204488 L207.503778,33.204488 L207.503778,64.256708 C207.503778,66.7275298 208.153828,68.6307304 209.453927,69.9663097 C210.754026,71.3018891 212.637503,71.9696787 215.104358,71.9696787 Z M263.208254,72.1700156 C268.475322,72.1700156 273.059006,71.1182469 276.959303,69.0147094 C280.859601,66.9111719 283.893166,63.9395079 286.059998,60.0997172 C288.22683,56.2599266 289.310246,51.7022621 289.310246,46.4267236 C289.310246,41.2179641 288.22683,36.6936891 286.059998,32.8538984 C283.893166,29.0141078 280.859601,26.0591385 276.959303,23.9889905 C273.059006,21.9188425 268.475322,20.8837685 263.208254,20.8837685 C257.941185,20.8837685 253.357501,21.9188425 249.457204,23.9889905 C245.556906,26.0591385 242.540009,29.0141078 240.406513,32.8538984 C238.273016,36.6936891 237.206268,41.2179641 237.206268,46.4267236 C237.206268,51.7022621 238.273016,56.2599266 240.406513,60.0997172 C242.540009,63.9395079 245.556906,66.9111719 249.457204,69.0147094 C253.357501,71.1182469 257.941185,72.1700156 263.208254,72.1700156 Z M263.208254,60.8509806 C260.008009,60.8509806 257.407811,59.6823487 255.407658,57.3450848 C253.407505,55.007821 252.407429,51.3683672 252.407429,46.4267236 C252.407429,41.551859 253.407505,37.9624895 255.407658,35.6586151 C257.407811,33.3547407 260.008009,32.2028035 263.208254,32.2028035 C266.408498,32.2028035 269.025364,33.3547407 271.058853,35.6586151 C273.092342,37.9624895 274.109086,41.551859 274.109086,46.4267236 C274.109086,51.3683672 273.092342,55.007821 271.058853,57.3450848 C269.025364,59.6823487 266.408498,60.8509806 263.208254,60.8509806 Z M306.301546,71.9696787 C311.368599,71.9696787 313.902126,69.3986885 313.902126,64.256708 L313.902126,64.256708 L313.902126,45.625376 C313.902126,38.7471423 317.635745,34.9407412 325.102981,34.2061725 L325.102981,34.2061725 L327.403157,34.0058356 C329.669997,33.7387198 331.286787,33.0041511 332.253527,31.8021297 C333.220268,30.6001083 333.636966,28.9640236 333.503623,26.8938756 C333.436951,24.6901697 332.953581,23.1041692 332.053512,22.1358741 C331.153443,21.1675791 329.870012,20.7502106 328.203218,20.8837685 C320.66931,21.3512213 315.702264,24.5566117 313.30208,30.4999398 L313.30208,30.4999398 L313.30208,28.6969077 C313.30208,23.6217062 310.835225,21.0841054 305.901515,21.0841054 C300.967805,21.0841054 298.50095,23.6217062 298.50095,28.6969077 L298.50095,28.6969077 L298.50095,64.256708 C298.50095,69.3986885 301.101149,71.9696787 306.301546,71.9696787 Z M409.499427,71.9696787 C411.899611,71.9696787 413.749752,71.3018891 415.049851,69.9663097 C416.34995,68.6307304 417,66.7275298 417,64.256708 L417,64.256708 L417,41.5184695 C417,34.5066779 415.633229,29.3146132 412.899687,25.9422753 C410.166145,22.5699374 405.99916,20.8837685 400.398732,20.8837685 C396.865129,20.8837685 393.648217,21.7018109 390.747996,23.3378956 C387.847774,24.9739803 385.630938,27.2611599 384.097488,30.1994345 C382.830724,27.060823 380.980583,24.7235591 378.547064,23.1876429 C376.113545,21.6517266 373.16332,20.8837685 369.696388,20.8837685 C366.296129,20.8837685 363.312567,21.6016424 360.745705,23.0373902 C358.178842,24.473138 356.162022,26.4598123 354.695243,28.9974131 L354.695243,28.9974131 L354.695243,28.6969077 C354.695243,23.6217062 352.228388,21.0841054 347.294678,21.0841054 C342.360968,21.0841054 339.894113,23.6217062 339.894113,28.6969077 L339.894113,28.6969077 L339.894113,64.256708 C339.894113,69.3986885 342.42764,71.9696787 347.494693,71.9696787 C352.495075,71.9696787 354.995266,69.3986885 354.995266,64.256708 L354.995266,64.256708 L354.995266,44.1228492 C354.995266,40.450006 355.795327,37.6118999 357.395449,35.6085309 C358.995571,33.6051618 361.229075,32.6034773 364.095961,32.6034773 C366.496144,32.6034773 368.22961,33.3547407 369.296358,34.8572675 C370.363106,36.3597942 370.89648,38.7471423 370.89648,42.0193118 L370.89648,42.0193118 L370.89648,64.256708 C370.89648,66.7275298 371.563197,68.6307304 372.896633,69.9663097 C374.230068,71.3018891 376.096877,71.9696787 378.49706,71.9696787 C383.497442,71.9696787 385.997633,69.3986885 385.997633,64.256708 L385.997633,64.256708 L385.997633,44.1228492 C385.997633,40.450006 386.797694,37.6118999 388.397816,35.6085309 C389.997938,33.6051618 392.231442,32.6034773 395.098328,32.6034773 C397.565183,32.6034773 399.315316,33.3547407 400.348729,34.8572675 C401.382141,36.3597942 401.898847,38.7471423 401.898847,42.0193118 L401.898847,42.0193118 L401.898847,64.256708 C401.898847,69.3986885 404.432374,71.9696787 409.499427,71.9696787 Z"/>
      </g>
    </g>
  </g>
</svg>
